<svg version="1.0" xmlns="http://www.w3.org/2000/svg"
 width="128.000000pt" height="153.000000pt" viewBox="0 0 128.000000 153.000000"
 preserveAspectRatio="xMidYMid meet">
<metadata>
Created by potrace 1.16, written by Peter Selinger 2001-2019
</metadata>
<g transform="translate(0.000000,153.000000) scale(0.100000,-0.100000)"
fill="#000000" stroke="none">
<path d="M276 1497 c-84 -110 -137 -370 -103 -502 12 -44 15 -101 14 -214 -2
-129 1 -161 15 -194 10 -22 18 -57 18 -80 0 -35 6 -46 54 -91 30 -28 57 -62
61 -76 15 -54 46 -89 87 -102 l40 -12 44 48 c25 26 58 52 74 58 32 11 38 34
19 69 -12 24 2 46 38 60 45 17 42 44 -13 119 -17 23 -24 43 -21 60 4 21 -2 29
-35 50 -57 35 -123 112 -153 177 -14 30 -25 56 -25 58 0 1 25 0 55 -3 40 -3
62 0 79 12 31 20 49 78 35 114 -7 18 -6 28 3 34 29 18 68 4 68 -26 0 -11 9
-34 19 -50 11 -17 18 -33 15 -37 -2 -4 1 -11 7 -15 8 -5 9 -3 4 6 -6 10 -4 11
11 5 10 -5 43 -11 72 -13 49 -4 54 -2 87 31 27 27 35 44 36 74 1 28 4 20 10
-27 15 -126 -38 -244 -146 -321 -25 -18 -45 -34 -45 -37 0 -7 53 28 80 54 l25
23 -3 -43 c-3 -36 2 -53 34 -102 21 -32 38 -70 37 -84 0 -15 1 -18 4 -8 2 10
8 18 12 18 5 0 5 19 1 42 -13 68 -3 75 44 30 22 -22 59 -48 81 -59 22 -10 45
-29 52 -43 12 -22 10 -27 -12 -45 -14 -11 -36 -29 -50 -40 -57 -47 -30 -125
45 -125 57 0 96 37 111 105 11 48 10 66 -6 136 -15 66 -16 86 -7 113 10 27 9
45 -7 106 -17 67 -17 77 -4 109 23 53 10 122 -39 221 -38 78 -42 93 -47 184
l-6 99 -58 52 c-31 29 -84 67 -116 84 l-59 31 -255 0 -256 0 -25 -33z m401
-71 c28 -14 57 -35 64 -47 6 -13 20 -32 30 -42 19 -20 53 -107 42 -107 -4 0
-14 6 -23 13 -9 6 -5 2 7 -10 l24 -23 -28 6 c-15 3 -53 1 -83 -3 -42 -6 -56
-13 -58 -27 -4 -17 0 -18 35 -10 80 18 135 10 203 -32 24 -15 22 -15 -30 -8
-70 9 -191 8 -350 -4 -69 -6 -127 -8 -130 -6 -12 12 31 24 88 24 45 0 62 4 62
14 0 10 -18 14 -69 15 -64 2 -71 0 -90 -25 l-21 -27 0 35 c0 19 5 50 12 68 10
30 12 32 19 14 6 -16 8 -15 8 9 2 63 41 116 126 170 51 33 96 33 162 3z m115
-296 c21 -6 44 -18 53 -26 19 -20 19 -73 0 -101 -18 -26 -83 -46 -120 -37 -24
6 -85 66 -85 84 0 25 22 61 47 74 33 18 56 19 105 6z m-293 -35 c49 -25 60
-95 23 -137 -18 -21 -100 -25 -124 -5 -10 7 -18 35 -21 75 -5 61 -5 62 21 68
15 3 32 7 37 9 21 7 37 5 64 -10z"/>
</g>
</svg>